<?xml version="1.0" encoding="utf-8"?>
<!-- Generator: Adobe Illustrator 19.1.0, SVG Export Plug-In . SVG Version: 6.00 Build 0)  -->
<!DOCTYPE svg PUBLIC "-//W3C//DTD SVG 1.1//EN" "http://www.w3.org/Graphics/SVG/1.1/DTD/svg11.dtd">
<svg version="1.1" xmlns="http://www.w3.org/2000/svg" xmlns:xlink="http://www.w3.org/1999/xlink" x="0px" y="0px"
	 viewBox="0 0 792 612" style="enable-background:new 0 0 792 612;" xml:space="preserve">
<style type="text/css">
	.st0{fill:none;stroke:#000000;stroke-width:3;stroke-miterlimit:10;}
	.st1{fill-rule:evenodd;clip-rule:evenodd;fill:none;stroke:#000000;stroke-width:3;stroke-miterlimit:10;}
	.st2{fill-rule:evenodd;clip-rule:evenodd;fill:none;stroke:#000000;stroke-width:2;stroke-miterlimit:10;}

.st0  {
  stroke-dasharray: 2500;
  stroke-dashoffset: 10;
	-webkit-animation: draw 5s linear forwards;
	-o-animation: draw 5s linear forwards:
	-moz-animation: draw 5s linear forwards;
	animation: draw 5s linear forwards;
}

.st1  {
  stroke-dasharray: 500;
  stroke-dashoffset: 10;
	-webkit-animation: draw 5s linear forwards;
	-o-animation: draw 5s linear forwards:
	-moz-animation: draw 5s linear forwards;
	animation: draw 5s linear forwards;
}

.st2  {
  stroke-dasharray: 25000;
  stroke-dashoffset: 10;
	-webkit-animation: draw 5s linear forwards;
	-o-animation: draw 5s linear forwards:
	-moz-animation: draw 5s linear forwards;
	animation: draw 5s linear forwards;
}

@keyframes draw {
  from {
    stroke-dashoffset: 1000;}
  to {
    stroke-dashoffset: 0;}
}


</style>
<!--  animation: dash 10s linear alternate infinite; -->
<g id="GLITTER">
	<g>
		<path class="st0" d="M710.6,148c-0.9-5.4-2.2-10.7-3.3-16.1c-1.3-6.1-2.6-12.3-3.9-18.4c-1-4.6-1.9-9.1-2.9-13.7
			c-1.2-5.7-2.5-11.3-3.7-17c-0.4-1.9-0.7-3.9-1-5.8c-0.1-0.4-0.2-0.9-0.3-1.3c-0.2,0.2-0.3,0.3-0.3,0.4c0.4,3.8,0.1,7.5-0.8,11.2
			c-1.5,6.2-4.2,11.8-7.1,17.4c-2.5,4.7-5.1,9.4-8.1,13.8c-4.2,6.1-8.8,12-13.4,17.8c-6.2,7.9-12.6,15.6-18.7,23.4
			c-5.4,7-10.8,14-15.9,21.2c-3.5,4.9-5.6,10.6-8,16.1c-0.8,1.9-1.9,3.6-3.9,3.9c-2.8,0.4-6.1-0.1-7.7-3.6c-0.1-0.2-0.3-0.4-0.7-0.9
			c2.6,10,5,19.6,7.5,29.3c2.2-1.7,3.2-1.5,4.7,0.7c1.5,2.1,3,4.2,4.5,6.3c3.2,4.5,6.5,9,9.7,13.5c1.7,2.3,0.5,5.3-2.1,5.9
			c-7.1,1.8-14.2,3.7-21.2,5.6c-1.5,0.4-2.6,0-3-1.4c-0.3-1-0.4-2.2-0.1-3.2c0.6-2.8,1.6-5.5,2-8.4c0.4-2.6,0.3-5.2,0.4-7.8
			c0.1-5.2,0-10.3-1.3-15.3c-2.2-8.7-4.5-17.4-6.8-26.1c-2.9-11-5.8-22-8.7-33c-0.8-3.1-1.6-6.3-2.5-9.8c0,1,0,1.5,0,2.1
			c0.1,4.6,0.6,9.1,0.3,13.6c-0.4,6.7-1.2,13.4-2,20.1c-0.6,5.1-1.5,10.2-2.5,15.3c-1.5,8.2-3.4,16.2-6,24.1c-0.1,0.3,0,0.8,0.2,1.1
			c2.1,2.3,3,5.2,3.8,8c0.5,1.5-0.8,3.8-2.2,4.4c-4,1.8-8.1,3.2-12.6,3.3c-1.4,0-2.8,0.3-4,0.8c-3.5,1.4-7.1,2.6-11,2.7
			c-9.8,0.1-17.2-4.6-23.4-11.7c-1.6-1.8-2.9-3.9-4.3-5.9c-1.1,1.6-2.3,3.1-3.4,4.6c-6.6,9-14.5,16.6-23.8,22.8
			c-6,4.1-12.5,7.3-19.2,10.3c-4.7,2.1-9.7,2.6-14.7,1.6c-3.9-0.8-7.6-2.3-10.8-4.7c-2.7-2.1-5.2-4.5-7.6-6.9
			c-1.5-1.6-2.7-3.5-4-5.3c-1.7,2.6-3.2,5.1-4.9,7.6c-4.6,6.7-9.8,12.9-15.9,18.4c-7,6.2-15.1,10.2-23.7,13.4
			c-4,1.5-8.3,2.5-12.7,2.5c-4.7,0-9.2-0.8-13.4-3c-6.1-3.3-9.9-8.5-12.5-14.6c-0.8-1.9-1.5-3.9-2.3-6c-1.5,3.2-2.9,6.3-4.5,9.3
			c-2.5,4.5-5.1,8.9-7.7,13.3c-2.6,4.4-5.7,8.4-9.3,12c-2.8,2.7-5.9,5-9.8,5.8c-3,0.5-5.9,0.1-8.8-0.4c-6.1-0.9-10.2-4.3-12.9-9.7
			c-1-2.1-1.8-4.3-2.6-6.5c-0.4,0.7-0.7,1.5-1.1,2.1c-1.8,2.9-3.5,5.7-5.3,8.6c-2.7,4.2-5.9,8-10,11c-6.6,4.7-13.6,5-20.2-0.1
			c-4.2-3.2-6.4-7.8-7.9-12.6c-1.1-3.7-1.6-7.5-2.3-11.1c-1.8,2.8-3.6,5.7-5.5,8.5c-4.4,6.2-9.1,12.2-14.3,17.9
			c-5.4,5.8-11.1,11.2-17.3,16.2c-9.7,7.7-20.1,14.2-31.4,19.4c-0.3,0.1-0.6,0.4-0.7,0.7c-1.2,2.7-2.4,5.4-3.5,8.1
			c-3.1,7.1-6,14.3-9.2,21.3c-3.1,7.2-6.4,14.3-9.6,21.4c-2.6,5.7-5.2,11.5-8.2,17.1c-2.5,4.7-5.3,9.3-8.1,13.8
			c-4.8,7.5-10.1,14.6-16.6,20.8c-7,6.7-14.9,12.1-24,15.4c-5.1,1.8-10.3,2.8-15.8,2.2c-5.2-0.6-9.8-2.6-13.6-6.2
			c-1.1-1-2.1-2.2-3.4-3.6c3.2,6.1,6.3,11.8,9.3,17.5c8.2,15.5,16.5,30.9,24.7,46.5c7,13.2,18.4,14.7,28.9,12.8c2-0.4,4-1.3,5.9-2
			c5.5-2,10.4-5,15-8.5c9.9-7.6,17.3-17.5,23.8-28c4.4-7,8-14.4,11.4-22c3.9-8.9,7.8-17.8,11.6-26.8c4.3-10.2,8.4-20.5,12.7-30.7
			c0.2-0.5,0.7-1,1.2-1.3c14.3-7,27.3-15.8,38.8-26.9c7.5-7.3,14.3-15.2,20.2-23.8c1.7-2.5,3.4-5.1,5.2-7.8c0.3,0.5,0.6,0.9,0.8,1.4
			c1.8,4.3,3.5,8.6,5.5,12.8c2,4.4,5.3,7.8,9.9,9.7c6.4,2.6,11.8,0.5,16.8-3.7c4.7-4,8.1-9.2,11.1-14.5c1-1.8,2-3.6,3.1-5.5
			c0.6,1.5,1.1,2.8,1.6,4.1c1.7,4.2,4.1,7.8,8.2,10.2c2.7,1.6,5.8,1.9,8.8,2.4c2.8,0.4,5.6,0.1,8.3-1.1c4.2-2,7.2-5.2,9.9-8.7
			c6.1-7.8,10.6-16.5,14.8-25.5c0.7-1.5,1.4-2.9,2.2-4.6c0.2,0.5,0.4,0.7,0.5,1c1.1,2.8,2.1,5.6,3.5,8.3
			c6.4,12.5,17.9,16.3,30.5,13.5c3-0.7,6.1-1.7,8.9-2.9c5.5-2.3,10.8-5,15.6-8.7c8.9-6.9,15.7-15.6,21.6-25.1c0.8-1.2,1.5-2.5,2.3-4
			c0.2,0.3,0.3,0.4,0.3,0.5c2.9,4.9,6.6,9,11.3,12.3c8.3,5.7,17,6.6,26.1,2.5c2.5-1.1,4.9-2.6,7.4-3.9c13.5-6.9,24.3-17,33.1-29.3
			c0.9-1.2,1.7-2.5,2.6-3.8c3.1,5.4,7,10,12,13.3c7.4,4.9,15.3,6.1,23.7,2.7c1.7-0.7,3.6-1.3,5.4-1.4c4.1-0.3,7.9-1.1,11.6-2.9
			c2.6-1.2,3.5-3.1,2.8-5.9c-0.8-3.2-1.7-6.3-2.5-9.5c-0.2-0.8-0.2-1.8,0-2.6c1.6-7.3,3.3-14.6,4.8-22c0.9-4.6,1.4-9.2,2.2-13.8
			c0.1,0,0.1,0,0.2,0c0.1,0.3,0.2,0.6,0.3,0.9c4.3,16.7,8.6,33.3,12.9,50c0,0.1,0.6,1,1.7,1.2c5,1.2,11-1,15.3-3.5
			c0.6-0.4,9.5-4.5,9.1-9.1c-2-8.2-4.5-18.2-6.6-26.4c-0.5-2.1-1-4.3-1.5-6.4c-0.1-0.3,0-0.7,0.1-1c2.4-6.3,5.6-12.2,9.6-17.5
			c5.6-7.5,11.4-14.9,17-22.4c8.5-11.3,17.2-22.5,25.5-33.9c6.1-8.4,10.3-17.8,13.9-27.4C710.8,159,711.5,153.5,710.6,148z"/>
		<path class="st1" d="M221.5,151.8c-3.8,3.9-7.8,7.8-11.4,11.8c-4.5,5-8.4,10.4-12,16c-3.9,6.1-7.1,12.5-9,19.4
			c-1.7,6.1-2.2,12.2,0,18.2c1.9,5.3,5.1,9.7,10.6,12c4.1,1.7,8.2,1.2,12.2-0.3c5.6-2.1,10.3-5.5,14.7-9.5c5.7-5.2,10.6-11,15-17.2
			c3.9-5.5,7.2-11.3,9.6-17.7c2-5.2,3.2-10.7,3.1-16.3c0-3-0.6-5.9-0.9-8.9c-0.1-0.5-0.2-0.9-0.1-1.5c9,22,18,43.9,26.9,65.8
			c-1.8,1.1-3.7,1.9-5.2,3.1c-2.9,2.2-4.7,5.5-6.2,8.7c-3.8,8.2-7.2,16.5-11.1,24.6c-3.4,7.1-7.1,14.1-11.1,20.9
			c-6.3,10.7-13.8,20.5-22.2,29.6c-5.3,5.7-11,11-17,15.9c-2.1,1.7-4.3,3.2-6.5,4.7c1.7-4.1,3.4-8.2,5.2-12.3
			c5.2-12.4,10.5-24.7,15.7-37.1c3.2-7.6,6.2-15.2,9.4-22.8c1.2-2.8,2.6-5.6,3.8-8.4c1.5-3.7,2.3-7.5,1.5-11.5
			c-0.8-3.9-2.2-7.4-5.3-10.1c-2.5-2.2-6.6-3.1-9.5,0.6c-1.8,2.3-3.4,4.7-4.9,7.2c-3.1,5.3-6.5,10.4-10.6,15
			c-13.6,15.2-27.2,30.4-41,45.4c-4.5,4.9-9.4,9.6-14.5,13.9c-7.4,6.3-14.7,12.8-22.8,18.1c-6,4-12.5,6.6-19.5,8
			c-2.9,0.6-5.9,0.9-8.9,0.3c-4.2-0.7-6.9-3.1-8.7-6.8c-2.2-4.6-2.9-9.5-3.1-14.5c-0.2-8.8,1.4-17.3,3.8-25.7
			c2.1-7.4,4.8-14.7,8.4-21.5c3-5.8,6.3-11.4,9.8-16.9c3.4-5.4,6.9-10.7,10.7-15.8c3.9-5.5,8-10.9,12.3-16.2
			c5.2-6.3,10.4-12.5,16-18.4c6.4-6.7,13-13.2,19.9-19.3c6-5.3,12.6-10.1,19-15c5.9-4.4,12.3-8,19-11.1c4.3-2,8.8-3.8,13.5-4.8
			C220.4,151.7,221.1,151.8,221.5,151.8z"/>
		<path class="st1" d="M160.1,365.2c-1.1,2.3-2.2,4.6-3.3,6.9c-2.3,4.8-4.6,9.6-6.9,14.4c-1.9,4.1-3.8,8.3-5.7,12.4
			c-2.6,5.4-5.2,10.8-7.8,16.2c-1.4,2.8-2.7,5.5-4.2,8.3c-3.5,6.5-7,13.1-10.7,19.5c-3.5,5.9-7.8,11.2-13.7,15
			c-4.1,2.7-8.6,4.4-13.7,4.5c-4,0.1-6.4-2.3-7-6.1c-0.9-6,0.7-11.6,2.6-17.1c2-5.7,4.7-11.1,7.8-16.2c4.8-7.9,10-15.5,16-22.6
			c4.8-5.7,10-11.1,15.7-16c8-6.9,16.7-12.9,26.4-17.5c1.4-0.7,2.9-1.4,4.3-2C160,365,160,365.1,160.1,365.2z"/>
		<path class="st1" d="M620.8,165.8c-4.6-18.3-9.2-36.4-13.9-54.7c0.6,1,1,1.9,1.6,2.6c3.3,4.2,7.8,4.2,11.1-0.1
			c1.9-2.5,3.3-5.3,5.3-7.6c3.4-4.1,6.8-8.1,10.5-11.8c6.1-6.1,12.8-11.4,20.1-16c4.3-2.7,8.7-5.1,13.5-6.8c2.5-0.9,5-1.7,7.7-1.7
			c2.4-0.1,3.3,1,3,3.5c-0.3,3.2-1.5,6.1-3,8.9c-1.8,3.3-3.5,6.6-5.5,9.8c-3.8,6.1-7.6,12.1-11.6,18c-5.5,8.1-11,16.1-16.6,24.1
			c-4.8,6.8-9.6,13.5-14.4,20.3C626.1,157.8,623.6,161.7,620.8,165.8z"/>
		<path class="st1" d="M186.8,301.8c-1.4,3.3-2.7,6.4-4,9.4c-2.6,6.2-5.3,12.3-7.9,18.5c-2.2,5.1-4.3,10.1-6.6,15.1
			c-0.3,0.6-1.1,1.1-1.8,1.3c-13,4-25.1,9.8-36.2,17.7c-9,6.4-17.1,14-24.6,22.1c-1.6,1.7-3.2,3.5-5,5.4
			c-9.7-18.9-19.4-37.8-29.3-57c1.8,2.2,3.2,4.2,4.8,6c6.4,7.1,14.3,11.9,23.6,14.2c6,1.5,12,1.7,18.1,0.7
			c8.9-1.5,16.8-5.2,24.1-10.4c4.7-3.4,9.4-7,13.6-11c5.5-5,10.6-10.5,15.7-15.9c5-5.3,9.9-10.7,14.8-16
			C186.3,301.9,186.4,301.9,186.8,301.8z"/>
		<path class="st1" d="M431.5,202.9c0.9,2.6,1.7,5.2,2.6,7.8c1.5,4.4,3,8.8,4.5,13.3c1,3.1,2.1,6.2,3,9.3c0.1,0.4,0.1,1-0.1,1.4
			c-2.4,3.7-4.9,7.4-7.3,11.1c-2.2,3.3-4.3,6.6-6.5,9.9c-3.3,4.8-6.8,9.4-11.1,13.3c-2.9,2.7-6.1,5.1-9.8,6.5
			c-4.4,1.6-9.1,2.1-13.7,0.5c-2.5-0.8-3.7-3-4.7-5.2c-0.6-1.2-0.9-2.6-1.4-3.9c-0.4-1,0-1.5,0.7-2c3-2.4,6.1-4.7,9-7.3
			c9.2-8.3,17.9-17.1,25.2-27c4.1-5.6,7.4-11.6,9-18.4c0.6-2.8,1-5.7,0.4-8.5c0-0.1,0.1-0.3,0.1-0.5
			C431.3,202.9,431.4,202.9,431.5,202.9z"/>
		<path class="st1" d="M343,223.6c0.5,1.3,1,2.4,1.5,3.6c1.7,4.5,3.4,8.9,5.1,13.4c1.5,3.9,2.9,7.8,4.4,11.7
			c0.4,0.9,0.2,1.6-0.4,2.6c-4.1,6.9-8,13.9-12.1,20.8c-3.7,6.2-7.2,12.7-12.5,17.8c-1,0.9-2.1,1.6-3.4,2.6
			c-0.8-1.9-0.5-3.7-0.4-5.4c0.7-7.7,3.5-14.9,5.6-22.3c2.7-9.4,5.6-18.7,8.4-28.1c1.2-3.9,2.4-7.8,3.5-11.7
			C343,227.1,342.8,225.4,343,223.6z"/>
		<path class="st1" d="M202.3,211.8c-0.6-3.9,0.5-7.3,1.8-10.5c2.2-5.1,4.5-10.3,7.3-15.1c4.6-7.9,10.3-15.1,17-21.4
			c1.5-1.4,2.8-2.9,4-4.5c1.9-2.5,1.9-4.5,0.3-8.1c2.9,1.2,4.2,3.5,4.7,6.4c0.9,5.6-0.8,10.7-3.2,15.6c-1.7,3.5-3.4,6.9-5.4,10.2
			c-4.7,7.9-10.1,15.3-16.9,21.5c-2.3,2.1-5.2,3.6-7.8,5.4C203.7,211.7,203,211.7,202.3,211.8z"/>
		<path class="st1" d="M543.8,209.3c0.8-1.3,1.6-2.5,2.3-3.7c1.3-2.1,2.7-4.1,4-6.2c2.2-3.6,4.3-7.3,6.5-10.9
			c4.5-7.3,9-14.6,13.4-21.9c0.1-0.1,0.1-0.2,0.4-0.3c0.1,19.4-2.7,38.2-9.4,56.6C555.5,218,550.9,212.2,543.8,209.3z"/>
		<path class="st1" d="M486.1,189c1.9,10.1-3.3,43.2-8.7,56.2c-2.7-2.5-5.4-5-8.1-7.5c-2.7-2.5-5.6-4.7-9.2-5.9
			C468.8,217.6,477.4,203.3,486.1,189z"/>
		<path class="st1" d="M283.1,301.6c-0.1-2.3-0.3-4.7-0.1-7c0.6-8.2,2.7-16.1,5.3-23.8c2.1-6.4,4.5-12.7,6.7-19.2
			c1.6-4.6,2.9-9.3,3-14.3c0-1.1-0.1-2.2,0-3.4c0.5,1.3,1.1,2.6,1.6,3.9c2.3,5.7,4.5,11.4,6.8,17.1c0.5,1.2,0.7,2.4,0.1,3.7
			c-2.5,5.8-4.9,11.6-7.5,17.4c-1.9,4.4-3.9,8.8-5.9,13.1c-1.7,3.6-3.4,7.2-6.2,10.2c-0.9,1-2.1,1.7-3.2,2.6
			C283.5,301.8,283.3,301.7,283.1,301.6z"/>
		<path class="st1" d="M500.7,242.8c7.6-21.5,10.6-43.5,9.2-66.2c0.4,1,0.8,1.9,1.1,2.9c2.1,7,4.1,14,6.1,21
			c1.5,5.2,3.1,10.3,4.6,15.5c0.2,0.7,0.1,1.6-0.3,2.2c-4.9,7.6-10.1,15-16.7,21.3c-1.1,1.1-2.3,2.1-3.5,3.2
			C501.1,242.7,500.9,242.7,500.7,242.8z"/>
		<path class="st1" d="M385.9,246.4c1-3.8,1.8-7.7,3.1-11.5c1.8-5.2,3.6-10.4,5.9-15.4c2.6-5.8,5.8-11.2,10.7-15.5
			c0.3-0.3,0.7-0.6,1.1-0.8c0.8-0.3,1.6-0.6,2.4-0.9c0.3,0.9,0.9,1.9,0.9,2.8c0,3.3-1.1,6.3-2.3,9.3c-2.8,6.9-6.5,13.3-10.9,19.3
			c-3.3,4.4-6.7,8.7-10.1,13.1C386.3,246.6,386.1,246.5,385.9,246.4z"/>
	</g>
</g>
<g id="PLASTISOL">
	<g>
		<path class="st2" d="M63,299.7c0.2-1.6,0.4-3.2,0.5-4.8c0.6-7.9,2.5-15.6,5-23.1c4.5-13.6,11.1-26.3,18.9-38.3
			c10.7-16.6,23.3-31.6,37.4-45.3c11.2-10.9,23.3-20.8,36.3-29.6c9-6.1,18.4-11.4,28.4-15.8c7.4-3.3,15.1-5.9,23-7.4
			c7.6-1.4,15.1-1.4,22.5,1.5c7.8,3.1,13,8.6,16,16.4c2.3,6,3.3,12.1,2.8,18.4c-0.4,5.3-1.7,10.5-4,15.3c-2.3,4.7-4.6,9.3-7.5,13.6
			c-5.2,7.9-11.3,15.1-18.8,21.1c-3.2,2.6-6.9,4.8-10.6,6.7c-4.9,2.4-10.1,3-15.1,0.3c-3.1-1.6-5.4-4.1-7.2-7.1
			c-4.4-7.5-4.4-15.3-1.8-23.3c1.3-4.2,3.2-8.3,5.1-12.3c4.3-8.6,10-16.2,16.4-23.3c3.1-3.4,6.5-6.6,9.8-9.8c0.4-0.4,0.8-0.7,1.2-1
			c0-0.1-0.1-0.2-0.1-0.4c-2,0.5-4,0.9-6,1.5c-7.7,2.4-14.9,6.1-21.7,10.4c-7.1,4.4-13.8,9.5-20.3,14.8
			c-8.6,7.1-16.6,14.8-24.3,22.9c-8.8,9.3-17,19.2-24.7,29.5c-7.5,10-14.4,20.3-20.6,31.1c-7.3,12.6-12.4,26-14.9,40.3
			c-1.1,6.2-1.6,12.5-0.8,18.8c0.6,4.6,1.6,9,4.5,12.7c2,2.6,4.7,3.8,7.8,4.2c3.2,0.3,6.4-0.2,9.5-0.8c6.4-1.3,12.3-3.9,17.7-7.5
			c4-2.7,7.8-5.8,11.6-8.8c10.9-8.5,20.8-18.1,30.4-28.1c4.6-4.9,9.1-10,13.6-14.9c5.2-5.7,10.3-11.4,15.5-17.1
			c4.8-5.3,9.5-10.7,13.5-16.7c2-2.9,3.7-6,5.6-9c1.5-2.2,3.1-4.3,4.8-6.3c2.1-2.4,5.9-1.8,7.9-0.3c2.7,2.1,4.3,4.9,5.4,8.1
			c2,6,0.5,11.4-1.9,16.9c-2,4.4-3.8,8.8-5.7,13.2c-2.3,5.4-4.5,10.8-6.8,16.1c-2.6,6.1-5.3,12.2-7.9,18.3
			c-4.1,9.7-8.3,19.4-12.4,29.1c-0.1,0.3-0.3,0.6-0.2,1.1c1.7-1.3,3.4-2.5,5-3.8c3.4-2.8,6.8-5.6,10-8.6
			c5.8-5.4,11.4-11.2,16.2-17.6c4.3-5.7,8.6-11.5,12.5-17.6c3.6-5.7,7-11.6,10-17.6c4-8.2,7.5-16.8,11.4-25.1
			c1.9-4.1,3.7-8.3,6.6-12c3.5-4.5,8.2-5.9,13.6-5.6c4.2,0.2,7.8,1.8,10,5.5c1.8,3,2.3,6.4,2,9.9c-0.6,5.8-2.6,11.3-4.4,16.8
			c-2.7,8-5.5,16.1-7.9,24.2c-1.8,5.9-2.9,12-2.7,18.3c0,1,0.3,2.1,0.5,3.2c2.6-1.1,4.2-2.9,5.4-5c1.9-3.4,3.7-6.9,5.4-10.4
			c2-4.1,3.7-8.3,5.7-12.4c4.6-9.6,8-19.7,11.7-29.7c2.7-7.5,5.3-15,8.1-22.5c1.2-3.3,3.2-6.1,6.6-7.6c2.3-1,4.5-1,6.8-0.3
			c3.8,1.3,7,3.4,8.8,7c1.4,2.8,1.3,5.9,0.5,8.8c-1.9,6.6-4.1,13.2-6.1,19.8c-3.5,11.8-6.9,23.7-10.3,35.6c-1,3.5-1.3,7.2-0.9,11.2
			c1.1-0.7,2-1.3,2.9-2c3.3-2.8,5.9-6.4,8.2-10c2.2-3.6,4.4-7.2,6.5-10.8c1.3-2.2,2.3-4.4,3.6-6.6c5.2-8.6,10.4-17.2,15.5-25.8
			c4.6-7.8,9.1-15.8,13.8-23.5c4.5-7.3,9.4-14.3,15.7-20.3c5.2-5,11.1-8.7,18.2-10.1c9.2-1.9,16.8,1.8,20.3,11.1
			c3.2,8.5,1.1,16.3-2.9,23.8c-3.7,7.1-8.6,13.3-14,19.2c-5.9,6.5-12.2,12.6-18.8,18.4c-2,1.7-4.1,3.3-6.2,4.9
			c-0.9,0.6-1.4,1.3-1.1,2.4c1.1,4.2,3.1,8.8,7.6,9.5c2.5,0.4,5,0.3,7.5,0.1c7-0.7,12.1-5,16.7-9.8c3.2-3.3,6-7,8.6-10.7
			c3.5-4.9,6.8-10.1,10.1-15.1c3.5-5.2,6.9-10.5,10.3-15.7c5-7.8,10-15.6,14.9-23.5c4.8-7.8,9.4-15.6,14-23.5
			c2.2-3.8,4-7.9,6.1-11.8c1.2-2.2,2.8-4.3,5.4-5c1.5-0.4,3.2-0.3,4.8-0.2c4,0.2,7.7,1.5,11,3.9c3.3,2.4,4.6,5.9,5.4,9.6
			c1.4,6.6,1.3,13.2,0.9,19.8c-0.3,5-0.9,9.9-1.4,14.9c-0.9,8.4-2.6,16.6-5.1,24.6c-0.9,2.9-1.8,5.9-2.7,8.9
			c4.9-4.1,9.3-8.6,12.9-13.8c6-8.5,11.8-17.2,17.5-25.9c10.2-15.4,20.2-30.8,29.3-46.8c2.4-4.2,4.5-8.7,6.8-13
			c1.2-2.1,2.7-4.2,5.3-4.7c1.5-0.3,3.2-0.4,4.8-0.3c4.7,0.4,8.9,1.8,12.3,5.3c2.1,2.1,3,4.7,3.6,7.5c1.5,6.9,1.4,13.8,0.8,20.7
			c-0.7,7.7-1.9,15.3-2.9,22.9c-1.1,8.4-2.7,16.7-4.9,24.8c-0.8,3.1-1.8,6.2-2.7,9.3c2.3,2.3,3.4,5.4,4.3,8.5c0.5,1.7-1,3.8-2.6,4.6
			c-4.5,2-9.1,3.1-14,3.3c-1.6,0.1-3.1,0.9-4.6,1.5c-6.8,2.8-13.5,2.4-20.1-0.6c-6.8-3.1-11.9-8.2-15.8-14.6
			c-0.1-0.2-0.3-0.4-0.4-0.5c0,0-0.1,0-0.2-0.1c-1,1.3-1.8,2.8-2.9,4.1c-3.4,4-6.6,8.1-10.2,11.9c-5.2,5.3-10.9,10-17.3,13.7
			c-2.9,1.7-5.9,3.1-8.9,4.6c-1.8,0.9-3.4,2.1-5.2,2.9c-7.1,3.3-14.4,3.6-21.7,0.5c-7.1-3-12.4-8.1-16.6-14.5
			c-0.2-0.3-0.3-0.6-0.4-0.9c-1,1.6-2,3.1-3,4.6c-3.9,6.2-8.4,12-13.6,17.3c-3.4,3.4-6.9,6.7-11,9.2c-4,2.3-8.1,4.5-12.2,6.4
			c-3.2,1.5-6.6,2.7-10.1,3.5c-7.7,1.6-15.2,1.5-22.2-2.8c-3-1.8-5.5-4.3-7.5-7.1c-2.7-3.8-4.5-8-5.9-12.7c-0.5,0.9-0.9,1.6-1.2,2.3
			c-1.6,3.1-3.1,6.2-4.7,9.3c-1.4,2.7-2.9,5.5-4.5,8.1c-3.3,5.3-6.6,10.6-11.3,14.8c-2,1.8-4.3,3.5-6.8,4.7
			c-1.6,0.8-3.6,1.1-5.4,1.1c-4.1,0.1-8.2-0.4-11.9-2.4c-3.8-2.1-6.4-5.3-8-9.3c-0.6-1.6-1.2-3.3-1.8-5.1c-0.5,0.8-1,1.6-1.4,2.4
			c-2.6,5.1-5.8,9.8-9.6,14.2c-2.9,3.4-6.3,6.2-10.6,7.7c-5.8,2.1-10.9,0.7-15.6-3.1c-3.5-2.8-5.4-6.7-7.1-10.7
			c-1.7-4.1-2.1-8.4-2.6-12.9c-1.1,1.7-2.1,3.2-3.1,4.8c-4.5,7-9.5,13.6-15,19.8c-4.9,5.6-10.2,10.7-15.8,15.5
			c-5.6,4.7-11.4,9.1-17.7,12.8c-5.4,3.2-11,6.1-16.5,9c-1.3,0.7-1.5,1.9-2,3c-3.4,7.9-6.8,15.8-10.3,23.7
			c-2.7,6.3-5.4,12.5-8.2,18.7c-2.5,5.6-4.9,11.2-7.7,16.6c-3.3,6.5-6.7,12.9-10.4,19c-3.9,6.4-8.4,12.4-13.4,18
			c-5.9,6.5-12.5,12-20.2,16.2c-4.4,2.3-8.9,4.4-13.8,5.3c-8,1.5-15.6,0.9-22.3-4.3c-3.2-2.5-5.4-5.6-7.2-9.2
			c-4.3-9-3.5-18.2-1-27.4c2.4-8.8,6.7-16.7,11.7-24.2c4.8-7.4,10.4-14.2,16.2-20.7c4.1-4.6,8.4-9,12.9-13.1
			c4.7-4.3,9.7-8.5,14.8-12.3c5.7-4.3,11.9-8,18.5-10.8c4.9-2.1,9.9-4,14.9-6c0.2-0.1,0.5-0.4,0.7-0.4c4-0.2,4.6-3.5,5.8-6.3
			c3.5-8.1,7-16.3,10.5-24.5c1.8-4.3,3.6-8.6,5.4-12.9c0.1-0.2,0.1-0.4,0-0.7c-1.4,1.5-2.8,3.1-4.3,4.6c-8.4,9-16.5,18.3-25.6,26.6
			c-6.2,5.7-12.7,11-20.1,15.1c-5.1,2.9-10.4,5.2-16.1,6.4c-7.2,1.5-14.4,1.3-21.5-0.8c-8.3-2.4-15.5-6.7-21.5-13
			c-6.7-7-10.7-15.5-12.5-25c-0.6-2.9-0.8-5.9-1.2-8.9c-0.1-0.5-0.2-0.9-0.3-1.4C63,303.9,63,301.8,63,299.7z M160,364.7
			c-0.9,0.4-1.5,0.8-2.2,1.1c-6.8,2.8-12.9,6.6-18.9,10.8c-8.4,5.9-16,12.9-22.8,20.6c-6.1,6.8-11.5,14.1-16.3,21.8
			c-4.5,7.2-8.5,14.5-11,22.6c-1.4,4.7-2.5,9.4-1.8,14.4c0.6,4,2.8,5.9,6.7,6.1c5.4,0.2,10.2-1.9,14.5-4.8
			c6.5-4.4,11-10.7,14.8-17.4c2.3-4.1,4.5-8.3,6.7-12.5c1.9-3.5,3.8-7.1,5.5-10.7c2.3-4.7,4.6-9.4,6.8-14.1c1.9-4,3.8-8,5.6-12
			c2.1-4.4,4.2-8.9,6.3-13.3C156,373.1,158,369,160,364.7z M233.5,152.3c-0.1,0.1-0.2,0.2-0.4,0.3c0.1,0.3,0.1,0.7,0.3,1
			c1.1,2.5,0.4,4.6-1.1,6.6c-1.1,1.4-2.2,2.8-3.5,4.1c-6.1,6-11.6,12.7-16.2,19.9c-4.1,6.4-7.4,13.1-9.6,20.4
			c-0.7,2.2-1.1,4.4-0.7,6.9c0.8-0.2,1.5-0.3,2.2-0.6c3.8-1.7,6.9-4.5,9.7-7.5c6-6.1,11-13,15.2-20.5c3.5-6,7.3-12,8-19.1
			c0.3-3.1,0.3-6.2-1.5-9C235.3,154,234.3,153.2,233.5,152.3z M543.8,209.2c6.9,2.7,11.4,8.5,16.8,13.3c4.5-5.8,12-50.3,9.4-55.7
			C561.2,180.8,552.5,195,543.8,209.2z M485.7,189.3c-8.6,14.1-17.1,28.2-25.7,42.3c7,2.7,11.6,8.5,17.2,13.4
			C483.5,226.9,486.1,208.4,485.7,189.3z M385.9,246.1c0.1,0.1,0.2,0.1,0.3,0.2c0.9-1.1,1.8-2.1,2.8-3.2c4.8-5.5,9-11.4,12.8-17.6
			c2-3.4,3.7-6.9,5.3-10.5c1.4-3.4,2.8-6.9,2.6-10.7c-0.1-2.2-1-2.8-2.7-1.4c-1.9,1.5-3.8,3.1-5.2,5
			C393.2,219.3,388.9,232.4,385.9,246.1z"/>
		<path class="st2" d="M695.4,79.7c-0.1,1.3-0.3,2.6-0.4,3.8c-0.7,5.1-2.4,9.8-4.6,14.4c-2.4,4.8-4.5,9.8-7.3,14.3
			c-3.6,5.8-7.5,11.4-11.7,16.8c-6.1,8-12.4,15.8-18.7,23.6c-5.1,6.4-10.3,12.8-15.4,19.3c-6,7.7-11,16.1-14.4,25.3
			c-0.7,1.9-2.1,3.4-4,3.6c-2.6,0.3-5.2-0.1-7-2.5c-2.3-3.2-2.6-6.8-2-10.6c0.9-5.7,3.8-10.5,6.6-15.3c3.6-6,7.4-11.9,11.3-17.7
			c3.6-5.5,7.5-10.8,11.3-16.1c3.2-4.6,6.6-9.1,9.8-13.7c2.6-3.8,5.2-7.6,7.8-11.4c2.9-4.3,5.7-8.5,8.5-12.8
			c1.7-2.6,3.2-5.3,4.8-7.9c2-3.4,4-6.9,5.9-10.3c1.6-3,3-6.1,3.3-9.5c0.2-2.4-0.4-3.3-2.8-3.3c-4,0-7.6,1.4-11.2,3.1
			c-12.9,5.9-23.6,14.7-33.4,24.8c-4.5,4.6-8.4,9.5-11.8,15c-0.9,1.5-2.5,2.9-4.1,3.8c-2.5,1.4-5.7,0.3-7.5-2.1
			c-2.5-3.4-3.3-7.2-2.7-11.3c1-7.1,4.5-13,9-18.3c9.7-11.6,21.2-21.2,34.5-28.4c4.2-2.3,8.6-4,13.4-4.9c10.1-1.9,18.7,0.6,25.3,8.8
			c3,3.8,5.4,8,6.5,12.8c0.3,1.5,0.4,3,0.5,4.5c0,0.3,0.2,0.6,0.2,0.8C695.4,78.8,695.4,79.2,695.4,79.7z"/>
		<path class="st2" d="M610.1,254.1c0.4-1.6,1-3.8,1.6-5.9c1.9-6.8,3.8-13.6,5.7-20.4c0.3-0.9,0.6-1.9,1.2-2.6
			c1-1.3,2.8-1.1,3.8,0.2c5,6.9,10,13.8,14.9,20.8c1.8,2.5,0.1,5.4-2.1,6c-7,1.8-14,3.7-21,5.6C611.7,258.5,610.2,257.3,610.1,254.1
			z"/>
	</g>
</g>
</svg>
